# xmcd
#
# Track frame offsets:
#	150
#	28591
#	50793
#	77061
#	109083
#	137338
#	170000
#	194305
#
# Disc length: 3119 seconds
# Revision: 0
# Processed by: cddbd v1.5.2PL0 Copyright (c) Steve Scherf et al.
# Submitted via: dBpowerAMP V12.0
#
DISCID=670c2d08
DTITLE=Various Artist - Classical Ocean
DYEAR=2013
DGENRE=Classical
TTITLE0=Bach - Air On A G Strig
TTITLE1=Mozart - Fur Elise
TTITLE2=Sadie - Gymnopedia
TTITLE3=Beethoven - Clair De Lune
TTITLE4=Debussy - Clair De Lune
TTITLE5=Mozart - Concerto No.23
TTITLE6=Saint-Saens - The Swan
TTITLE7=Beethoven - Moonlight Sonata
EXTD=
EXTT0=
EXTT1=
EXTT2=
EXTT3=
EXTT4=
EXTT5=
EXTT6=
EXTT7=
PLAYORDER=
